<svg width="1536" height="1080" fill="none" xmlns="http://www.w3.org/2000/svg"><g opacity=".6"><path fill="#171717" d="M0-82h1536.15v1244H0z"/><mask id="b" style="mask-type:alpha" maskUnits="userSpaceOnUse" x="-12" y="-253" width="1560" height="1585"><mask id="a" maskUnits="userSpaceOnUse" x="-12" y="-252.866" width="1560" height="1585" fill="#000"><path fill="#fff" d="M-12-252.866h1560v1585H-12z"/><path d="M158.783 196.345v-50.318l-62.06 62.059h22.923v50.318l62.06-62.059h-22.923zm0 643.936v-50.319l-62.06 62.06h22.923v50.318l62.06-62.059h-22.923zM933.126 67.194V16.876l-62.059 62.059h22.922v50.318l62.059-62.059h-22.922zm0 643.936v-50.318l-62.059 62.059h22.922v50.318l62.059-62.059h-22.922zM158.783 518.382v-50.318l-62.06 62.059h22.923v50.318l62.06-62.059h-22.923zm0 643.938V1112l-62.06 62.06h22.923v50.32l62.06-62.06h-22.923zm774.343-773.088v-50.318l-62.059 62.059h22.922v50.318l62.059-62.059h-22.922zm0 643.938v-50.321l-62.059 62.061h22.922v50.32l62.059-62.06h-22.922zM545.675 132.049V81.731l-62.06 62.059h22.923v50.318l62.059-62.059h-22.922zm0 643.936v-50.318l-62.06 62.059h22.923v50.318l62.059-62.059h-22.922zM1320.02 2.899V-47.42l-62.06 62.06h22.92v50.318l62.06-62.06h-22.92zm0 643.935v-50.318l-62.06 62.059h22.92v50.319l62.06-62.06h-22.92zM545.675 856.723v-50.318l-62.06 62.059h22.923v50.319l62.06-62.06h-22.923zm0-402.637v-50.318l-62.06 62.059h22.923v50.319l62.059-62.06h-22.922zm0 643.934v-50.32l-62.06 62.06h22.923v50.32l62.059-62.06h-22.922zm774.345-773.084v-50.318l-62.06 62.059h22.92v50.318l62.06-62.059h-22.92zm0 643.936v-50.318l-62.06 62.059h22.92v50.317l62.06-62.058h-22.92zM352.229 163.917v-50.318l-62.06 62.059h22.923v50.318l62.06-62.059h-22.923zm0 643.936v-50.319l-62.06 62.06h22.923v50.318l62.06-62.059h-22.923zM1126.57 34.767v-50.319l-62.06 62.06h22.93v50.318l62.05-62.06h-22.92zM352.229 244.656v-50.318l-62.06 62.059h22.923v50.318l62.059-62.059h-22.922zm774.341 434.047v-50.319l-62.06 62.06h22.93v50.318l62.05-62.059h-22.92zM352.229 485.955v-50.318l-62.06 62.059h22.923v50.318l62.06-62.059h-22.923zm0 643.935v-50.32l-62.06 62.06h22.923v50.32l62.06-62.06h-22.923zm774.341-773.086v-50.318l-62.06 62.059h22.93v50.319l62.05-62.06h-22.92zm0 643.936v-50.319l-62.06 62.059h22.93v50.32l62.05-62.06h-22.92zM739.121 99.622V49.303l-62.06 62.059h22.923v50.319l62.059-62.06h-22.922zm0 643.935v-50.318l-62.06 62.059h22.923v50.319l62.059-62.06h-22.922zM1513.46-29.529v-50.318l-62.06 62.06h22.93V32.53l62.06-62.06h-22.93zm0 643.936v-50.318l-62.06 62.059h22.93v50.318l62.06-62.059h-22.93zM739.121 421.659v-50.318l-62.06 62.059h22.923v50.318l62.059-62.059h-22.922zm0 643.931v-50.31l-62.06 62.06h22.923v50.31l62.059-62.06h-22.922zm774.339-773.081V242.19l-62.06 62.059h22.93v50.319l62.06-62.059h-22.93zm0 643.935v-50.318l-62.06 62.059h22.93v50.319l62.06-62.06h-22.93zM158.783 35.326v-50.319l-62.06 62.06h22.923v50.318l62.06-62.06h-22.923zm0 643.935v-50.318l-62.06 62.059h22.923v50.319l62.06-62.06h-22.923zM933.126-93.825v-50.318l-62.059 62.06h22.922v50.318l62.059-62.06h-22.922zm-774.343 209.89V65.746l-62.06 62.059h22.923v50.319l62.059-62.059h-22.922zm774.343 434.046v-50.318l-62.059 62.059h22.922v50.319l62.059-62.06h-22.922zM158.783 357.363v-50.318l-62.06 62.059h22.923v50.319l62.06-62.06h-22.923zm0 643.937v-50.319l-62.06 62.059h22.923v50.32l62.06-62.06h-22.923zm774.343-773.087v-50.319l-62.059 62.06h22.922v50.318l62.059-62.059h-22.922zm0 643.936V821.83l-62.059 62.059h22.922v50.319l62.059-62.059h-22.922zM545.675-28.97v-50.318l-62.06 62.059h22.923V33.09l62.059-62.06h-22.922zm0 643.936v-50.319l-62.06 62.06h22.923v50.318l62.059-62.059h-22.922zM1320.02-158.12v-50.319l-62.06 62.06h22.92v50.318l62.06-62.059h-22.92zm0 643.936v-50.319l-62.06 62.06h22.92v50.318l62.06-62.059h-22.92zM545.675 293.068V242.75l-62.06 62.059h22.923v50.318l62.059-62.059h-22.922zm0 643.935v-50.318l-62.06 62.06h22.923v50.318l62.059-62.06h-22.922zm774.345-773.086v-50.318l-62.06 62.059h22.92v50.319l62.06-62.06h-22.92zM545.675 373.806v-50.318l-62.06 62.059h22.923v50.319l62.06-62.06h-22.923zm774.345 434.047v-50.319l-62.06 62.06h22.92v50.318l62.06-62.059h-22.92zM352.229 2.898V-47.42l-62.06 62.06h22.923v50.318l62.06-62.06h-22.923zm0 643.936v-50.318l-62.06 62.059h22.923v50.318l62.06-62.059h-22.923zm774.341-773.086v-50.318l-62.06 62.059h22.93v50.318l62.05-62.059h-22.92zm0 643.936v-50.318l-62.06 62.059h22.93v50.318l62.05-62.059h-22.92zM352.229 324.936v-50.318l-62.06 62.059h22.923v50.319l62.06-62.06h-22.923zm0 643.936v-50.318l-62.06 62.059h22.923v50.317l62.06-62.058h-22.923zm774.341-773.086v-50.319l-62.06 62.059h22.93v50.319l62.05-62.059h-22.92zm0 643.935v-50.318l-62.06 62.059h22.93v50.319l62.05-62.06h-22.92zM352.229 1049.61v-50.318l-62.06 62.058h22.923v50.32l62.059-62.06h-22.922zM739.121-61.397v-50.319l-62.06 62.06h22.923V.662l62.059-62.06h-22.922zm0 643.936V532.22l-62.06 62.059h22.923v50.319l62.059-62.059h-22.922zm774.339-773.086v-50.319l-62.06 62.059h22.93v50.319l62.06-62.059h-22.93zm0 643.935V403.07l-62.06 62.059h22.93v50.319l62.06-62.06h-22.93zM739.121 260.64v-50.318l-62.06 62.06h22.923V322.7l62.059-62.06h-22.922zm0 643.936v-50.318l-62.06 62.059h22.923v50.318l62.059-62.059h-22.922zM1513.46 131.49V81.171l-62.06 62.06h22.93v50.318l62.06-62.059h-22.93zm0 643.936v-50.319l-62.06 62.059h22.93v50.319l62.06-62.059h-22.93zM158.783 276.854v-50.318l-62.06 62.059h22.923v50.318l62.06-62.059h-22.923zm0 643.936v-50.318l-62.06 62.059h22.923v50.318l62.06-62.059h-22.923zm774.343-773.086V97.385l-62.059 62.059h22.922v50.319l62.059-62.059h-22.922zm0 643.935v-50.318l-62.059 62.059h22.922v50.319l62.059-62.06h-22.922zM158.783 598.891v-50.318l-62.06 62.059h22.923v50.319l62.06-62.06h-22.923zm0 643.939v-50.32l-62.06 62.06h22.923v50.32l62.06-62.06h-22.923zm774.343-773.089v-50.318l-62.059 62.059h22.922V531.8l62.059-62.059h-22.922z"/><path d="M158.783 679.63v-50.318l-62.06 62.059h22.923v50.318l62.059-62.059h-22.922zm774.343 434.05v-50.32l-62.059 62.06h22.922v50.32l62.059-62.06h-22.922zM545.675 212.558V162.24l-62.06 62.059h22.923v50.319l62.059-62.06h-22.922zm0 643.936v-50.318l-62.06 62.059h22.923v50.318l62.059-62.059h-22.922zM1320.02 83.408V33.089l-62.06 62.06h22.92v50.318l62.06-62.06h-22.92zm0 643.936v-50.319l-62.06 62.059h22.92v50.319l62.06-62.059h-22.92zM545.675 534.596v-50.319l-62.06 62.06h22.923v50.318l62.059-62.059h-22.922zm0 643.934v-50.32l-62.06 62.06h22.923v50.32l62.059-62.06h-22.922zm774.345-773.085v-50.318l-62.06 62.059h22.92v50.319l62.06-62.06h-22.92zm0 643.935v-50.317l-62.06 62.057h22.92v50.32l62.06-62.06h-22.92zM352.229 244.426v-50.318l-62.06 62.059h22.923v50.319l62.06-62.06h-22.923zm0 643.936v-50.318l-62.06 62.059h22.923v50.318l62.06-62.059h-22.923zm774.341-773.086V64.958l-62.06 62.059h22.93v50.318l62.05-62.059h-22.92zm0 643.936v-50.318l-62.06 62.059h22.93v50.318l62.05-62.059h-22.92zM352.229 566.464v-50.318l-62.06 62.059h22.923v50.318l62.06-62.059h-22.923zm0 643.936v-50.32l-62.06 62.06h22.923v50.32l62.06-62.06h-22.923zm774.341-773.086v-50.319l-62.06 62.059h22.93v50.319l62.05-62.059h-22.92zm0 643.936v-50.32l-62.06 62.06h22.93v50.32l62.05-62.06h-22.92zM739.121 180.131v-50.319l-62.06 62.06h22.923v50.318l62.059-62.059h-22.922zm0 643.936v-50.319l-62.06 62.059h22.923v50.319l62.059-62.059h-22.922zM1513.46 50.98V.663l-62.06 62.06h22.93v50.318l62.06-62.06h-22.93zm0 643.936v-50.318l-62.06 62.059h22.93v50.319l62.06-62.06h-22.93zM739.121 904.805v-50.318l-62.06 62.059h22.923v50.319l62.06-62.06h-22.923zm0-402.637V451.85l-62.06 62.059h22.923v50.319l62.059-62.06h-22.922zm0 643.932v-50.31l-62.06 62.06h22.923v50.31l62.059-62.06h-22.922zm774.339-773.082v-50.319l-62.06 62.06h22.93v50.318l62.06-62.059h-22.93zm0 643.932v-50.315l-62.06 62.055h22.93v50.32l62.06-62.06h-22.93zM158.783 115.835V65.517l-62.06 62.059h22.923v50.318l62.06-62.059h-22.923zm0 643.936v-50.319l-62.06 62.06h22.923v50.318l62.06-62.059h-22.923zM933.126-13.315v-50.319l-62.059 62.06h22.922v50.318l62.059-62.06h-22.922zm0 643.936v-50.319l-62.059 62.06h22.922v50.318l62.059-62.059h-22.922zM158.783 437.873v-50.319l-62.06 62.06h22.923v50.318l62.06-62.059h-22.923zm0 643.937v-50.32l-62.06 62.06h22.923v50.32l62.06-62.06h-22.923zm774.343-773.088v-50.318l-62.059 62.059h22.922v50.319l62.059-62.06h-22.922zm0 643.936v-50.319l-62.059 62.06h22.922v50.321l62.059-62.062h-22.922zM545.675 51.54V1.222l-62.06 62.059h22.923v50.318l62.059-62.06h-22.922zm0 643.935v-50.318l-62.06 62.06h22.923v50.318l62.059-62.06h-22.922zM1320.02-77.61v-50.319l-62.06 62.059h22.92v50.319l62.06-62.06h-22.92zm0 643.935v-50.318l-62.06 62.059h22.92v50.318l62.06-62.059h-22.92zM545.675 373.577v-50.318l-62.06 62.059h22.923v50.318l62.059-62.059h-22.922zm0 643.933v-50.315l-62.06 62.055h22.923v50.32l62.059-62.06h-22.922zm774.345-773.083v-50.319l-62.06 62.059h22.92v50.319l62.06-62.059h-22.92zm0 643.935v-50.318l-62.06 62.059h22.92v50.319l62.06-62.06h-22.92zM352.229 83.408V33.089l-62.06 62.06h22.923v50.318l62.06-62.06h-22.923zm0 643.935v-50.318l-62.06 62.059h22.923v50.319l62.06-62.06h-22.923zM1126.57-45.742v-50.319L1064.51-34h22.93v50.318l62.05-62.06h-22.92zm0 643.935v-50.318l-62.06 62.059h22.93v50.319l62.05-62.06h-22.92zM352.229 405.446v-50.319l-62.06 62.059h22.923v50.319l62.06-62.059h-22.923zm0 643.934v-50.317l-62.06 62.057h22.923v50.32l62.06-62.06h-22.923zm774.341-773.085v-50.319l-62.06 62.06h22.93v50.318l62.05-62.059h-22.92zm0 643.936v-50.319l-62.06 62.059h22.93v50.319l62.05-62.059h-22.92zM739.121 19.112v-50.318l-62.06 62.059h22.923v50.318l62.059-62.059h-22.922zm0 643.936v-50.319l-62.06 62.06h22.923v50.318l62.059-62.059h-22.922zm774.339-773.086v-50.319l-62.06 62.06h22.93v50.318l62.06-62.059h-22.93zm0 643.936v-50.319l-62.06 62.06h22.93v50.318l62.06-62.059h-22.93zM739.121 341.15v-50.318l-62.06 62.059h22.923v50.318l62.059-62.059h-22.922zm0 643.935v-50.318l-62.06 62.06h22.923v50.313l62.059-62.055h-22.922zm774.339-773.086v-50.318l-62.06 62.059h22.93v50.319l62.06-62.06h-22.93zM739.121 421.888V371.57l-62.06 62.059h22.923v50.319l62.06-62.06h-22.923zm774.339 434.047v-50.319l-62.06 62.06h22.93v50.318l62.06-62.059h-22.93zM62.06 211.999v-50.318L0 223.74h22.923v50.319l62.06-62.06H62.058zm0 643.936v-50.319L0 867.676h22.923v50.318l62.06-62.059H62.058zM836.402 82.849V32.53l-62.059 62.06h22.923v50.318l62.059-62.06h-22.923zm0 643.936v-50.319l-62.059 62.06h22.923v50.318l62.059-62.059h-22.923zM62.06 534.037v-50.318L0 545.778h22.923v50.318l62.06-62.059H62.058zm0 643.933v-50.32L0 1189.71h22.923v50.32l62.06-62.06H62.058zm774.342-773.084v-50.318l-62.059 62.059h22.923v50.319l62.059-62.06h-22.923zm0 643.934v-50.317l-62.059 62.057h22.923v50.32l62.059-62.06h-22.923zM448.951 147.703V97.385l-62.059 62.059h22.923v50.319l62.059-62.06h-22.923zm0 643.936v-50.318l-62.059 62.059h22.923v50.318l62.059-62.059h-22.923zM1223.3 18.553v-50.318l-62.06 62.06h22.92v50.317l62.06-62.059h-22.92zm0 643.936v-50.318l-62.06 62.059h22.92v50.318l62.06-62.059h-22.92zM448.951 469.741v-50.318l-62.059 62.059h22.923V531.8l62.059-62.059h-22.923zm0 643.939v-50.32l-62.059 62.06h22.923v50.32l62.059-62.06h-22.923zM1223.3 340.59v-50.318l-62.06 62.059h22.92v50.319l62.06-62.06h-22.92zm0 643.936v-50.318l-62.06 62.059h22.92v50.323l62.06-62.064h-22.92zM448.952 1194.42v-50.32l-62.059 62.06h22.923v50.31l62.059-62.05h-22.923zM255.505 179.572v-50.319l-62.059 62.06h22.923v50.318l62.059-62.059h-22.923zm0 643.936v-50.319l-62.059 62.059h22.923v50.319l62.059-62.059h-22.923zM1029.85 50.422V.102l-62.061 62.06h22.923v50.318l62.058-62.06h-22.92zm0 643.935v-50.318l-62.061 62.059h22.923v50.319l62.058-62.06h-22.92zM255.505 501.609v-50.318l-62.059 62.059h22.923v50.319l62.059-62.06h-22.923zm0 643.931v-50.31l-62.059 62.06h22.923v50.31l62.059-62.06h-22.923zm774.345-773.081V322.14l-62.061 62.06h22.923v50.318l62.058-62.059h-22.92zm0 643.931v-50.314l-62.061 62.064h22.923v50.31l62.058-62.06h-22.92zM642.397 115.276V64.958l-62.059 62.059h22.923v50.318l62.059-62.059h-22.923zm0 643.936v-50.318l-62.059 62.059h22.923v50.318l62.059-62.059h-22.923zM1416.74-13.874v-50.319l-62.06 62.06h22.92v50.318l62.06-62.06h-22.92zm0 643.936v-50.319l-62.06 62.06h22.92v50.318l62.06-62.059h-22.92zM642.397 437.313v-50.318l-62.059 62.059h22.923v50.319l62.059-62.06h-22.923zm0 643.937v-50.32l-62.059 62.06h22.923v50.32l62.059-62.06h-22.923zm774.343-773.087v-50.318l-62.06 62.059h22.92v50.318l62.06-62.059h-22.92zm0 643.936v-50.318l-62.06 62.059h22.92v50.32l62.06-62.061h-22.92zM62.06 50.98V.663L0 62.722h22.923v50.318l62.06-62.06H62.058zm0 643.936v-50.318L0 706.657h22.923v50.319l62.06-62.06H62.058zM836.402-78.17v-50.318l-62.059 62.06h22.923v50.317l62.059-62.059h-22.923zm0 643.936v-50.318l-62.059 62.059h22.923v50.318l62.059-62.059h-22.923zM62.06 373.018v-50.319L0 384.759h22.923v50.318l62.06-62.059H62.058zm0 643.932v-50.315L0 1028.69h22.923v50.32l62.06-62.06H62.058zm774.342-773.082v-50.319l-62.059 62.059h22.923v50.319l62.059-62.059h-22.923zm0 643.935v-50.318l-62.059 62.059h22.923v50.319l62.059-62.06h-22.923zM448.951-13.315v-50.319l-62.059 62.06h22.923v50.318l62.059-62.06h-22.923zm0 643.936v-50.319l-62.059 62.06h22.923v50.318l62.059-62.059h-22.923zM1223.3-142.465v-50.319l-62.06 62.059h22.92v50.319l62.06-62.059h-22.92zm0 643.935v-50.318l-62.06 62.059h22.92v50.319l62.06-62.06h-22.92zM448.952 711.359v-50.318L386.893 723.1h22.923v50.319l62.059-62.06h-22.923zm-.001-402.637v-50.318l-62.059 62.059h22.923v50.318l62.059-62.059h-22.923zm0 643.936v-50.319l-62.059 62.06h22.923v50.321l62.059-62.062h-22.923zM1223.3 179.572v-50.319l-62.06 62.06h22.92v50.318l62.06-62.059h-22.92zm0 643.936v-50.319l-62.06 62.059h22.92v50.319l62.06-62.059h-22.92zM255.505 18.553v-50.318l-62.059 62.06h22.923v50.317l62.059-62.059h-22.923zm0 643.936v-50.318l-62.059 62.059h22.923v50.318l62.059-62.059h-22.923zm774.345-773.086v-50.318l-62.061 62.059h22.923v50.318l62.058-62.059h-22.92zm0 643.936V483.02l-62.061 62.06h22.923v50.318l62.058-62.059h-22.92zM255.505 340.591v-50.319l-62.059 62.059h22.923v50.319l62.059-62.059h-22.923zm0 643.935v-50.318l-62.059 62.059h22.923v50.323l62.059-62.064h-22.923zM1029.85 211.44v-50.318l-62.061 62.059h22.923v50.318l62.058-62.059h-22.92zm0 643.936v-50.318l-62.061 62.059h22.923v50.318l62.058-62.059h-22.92zM642.397-45.742v-50.319L580.338-34h22.923v50.318l62.059-62.06h-22.923zm0 643.935v-50.318l-62.059 62.059h22.923v50.319l62.059-62.06h-22.923zm774.343-773.086v-50.318l-62.06 62.059h22.92v50.319l62.06-62.06h-22.92zm0 643.936v-50.318l-62.06 62.059h22.92v50.318l62.06-62.059h-22.92zM642.397 276.295v-50.319l-62.059 62.06h22.923v50.318l62.059-62.059h-22.923zm0 643.935v-50.318l-62.059 62.059h22.923v50.319l62.059-62.06h-22.923zm774.343-773.086V96.826l-62.06 62.059h22.92v50.319l62.06-62.06h-22.92zm0 643.936v-50.318l-62.06 62.059h22.92v50.319l62.06-62.06h-22.92zM62.06 292.509V242.19L0 304.249h22.923v50.319l62.06-62.059H62.058zm0 643.935v-50.318L0 948.185h22.923v50.319l62.06-62.06H62.058zm774.342-773.086V113.04l-62.059 62.059h22.923v50.318l62.059-62.059h-22.923z"/><path d="M62.06 373.247v-50.318L0 384.988h22.923v50.319l62.06-62.06H62.058zm774.342 434.047v-50.318l-62.059 62.059h22.923v50.318l62.059-62.059h-22.923zM62.06 614.546v-50.318L0 626.287h22.923v50.318l62.06-62.059H62.058zm0 643.934v-50.32L0 1270.22h22.923v50.32l62.06-62.06H62.058zm774.342-773.084v-50.319l-62.059 62.059h22.923v50.319l62.059-62.059h-22.923zm0 643.934v-50.32l-62.059 62.06h22.923v50.32l62.059-62.06h-22.923zM448.951 228.213v-50.319l-62.059 62.06h22.923v50.318l62.059-62.059h-22.923zm0 643.935V821.83l-62.059 62.059h22.923v50.319l62.059-62.06h-22.923zM1223.3 99.063v-50.32l-62.06 62.059h22.92v50.319l62.06-62.06h-22.92zm0 643.935V692.68l-62.06 62.059h22.92v50.319l62.06-62.06h-22.92zM448.951 550.25v-50.318l-62.059 62.059h22.923v50.319l62.059-62.06h-22.923zm0 643.94v-50.32l-62.059 62.06h22.923v50.32l62.059-62.06h-22.923zM1223.3 421.1v-50.319l-62.06 62.06h22.92v50.318l62.06-62.059h-22.92zm0 643.94v-50.32l-62.06 62.06h22.92v50.31l62.06-62.05h-22.92zM255.505 260.081v-50.318l-62.059 62.059h22.923v50.318l62.059-62.059h-22.923zm0 643.936v-50.318l-62.059 62.059h22.923v50.318l62.059-62.059h-22.923zm774.345-773.086V80.612l-62.061 62.06h22.923v50.318l62.058-62.059h-22.92zm0 643.936v-50.319l-62.061 62.06h22.923v50.318l62.058-62.059h-22.92zM255.505 582.119v-50.318l-62.059 62.059h22.923v50.318l62.059-62.059h-22.923zm0 643.931v-50.31l-62.059 62.06h22.923v50.31l62.059-62.06h-22.923zm774.345-773.082V402.65l-62.061 62.059h22.923v50.318l62.058-62.059h-22.92zm0 643.932v-50.31l-62.061 62.05h22.923v50.32l62.058-62.06h-22.92zM642.397 195.785v-50.318l-62.059 62.059h22.923v50.319l62.059-62.06h-22.923zm0 643.936v-50.318l-62.059 62.059h22.923v50.318l62.059-62.059h-22.923zM1416.74 66.635V16.317l-62.06 62.06h22.92v50.317l62.06-62.059h-22.92zm0 643.936v-50.318l-62.06 62.059h22.92v50.318l62.06-62.059h-22.92zM642.397 517.823v-50.318l-62.059 62.059h22.923v50.319l62.059-62.06h-22.923zm0 643.937v-50.32l-62.059 62.06h22.923v50.32l62.059-62.06h-22.923zm774.343-773.088v-50.318l-62.06 62.059h22.92v50.319l62.06-62.06h-22.92zM642.398 598.561v-50.318l-62.059 62.059h22.923v50.319l62.059-62.06h-22.923zm774.342 434.049v-50.32l-62.06 62.06h22.92v50.32l62.06-62.06h-22.92zM62.06 131.49V81.171L0 143.231h22.923v50.318l62.06-62.059H62.058zm0 643.936v-50.319L0 787.166h22.923v50.319l62.06-62.059H62.058zM836.402 2.34v-50.32l-62.059 62.06h22.923v50.318l62.059-62.06h-22.923zm0 643.935v-50.318l-62.059 62.059h22.923v50.319l62.059-62.06h-22.923zM62.06 453.527v-50.318L0 465.269h22.923v50.318l62.06-62.06H62.058zm0 643.933v-50.31L0 1109.2h22.923v50.32l62.06-62.06H62.058zm774.342-773.083v-50.319l-62.059 62.06h22.923v50.318l62.059-62.059h-22.923zm0 643.936v-50.319l-62.059 62.059h22.923v50.317l62.059-62.057h-22.923zM448.951 67.194V16.876l-62.059 62.059h22.923v50.318l62.059-62.059h-22.923zm0 643.936v-50.318l-62.059 62.059h22.923v50.318l62.059-62.059h-22.923zM1223.3-61.956v-50.319l-62.06 62.06h22.92V.103l62.06-62.06h-22.92zm0 643.936v-50.319l-62.06 62.06h22.92v50.318l62.06-62.059h-22.92zM448.951 389.232v-50.318l-62.059 62.059h22.923v50.318l62.059-62.059h-22.923zm0 643.938v-50.321l-62.059 62.061h22.923v50.32l62.059-62.06h-22.923zM1223.3 260.081v-50.318l-62.06 62.059h22.92v50.318l62.06-62.059h-22.92zm0 643.936v-50.318l-62.06 62.059h22.92v50.318l62.06-62.059h-22.92zM255.505 99.063v-50.32l-62.059 62.059h22.923v50.319l62.059-62.06h-22.923zm0 643.935V692.68l-62.059 62.059h22.923v50.319l62.059-62.06h-22.923zM1029.85-30.088v-50.318l-62.061 62.06h22.923V31.97l62.058-62.059h-22.92zm0 643.936V563.53l-62.061 62.059h22.923v50.318l62.058-62.059h-22.92zM255.505 823.737v-50.318l-62.059 62.059h22.923v50.318l62.059-62.059h-22.923zm0-402.637v-50.319l-62.059 62.06h22.923v50.318l62.059-62.059h-22.923zm0 643.94v-50.32l-62.059 62.06h22.923v50.31l62.059-62.05h-22.923zm774.345-773.091v-50.318l-62.061 62.059h22.923v50.319l62.058-62.06h-22.92zm-774.345 209.89V451.52l-62.059 62.059h22.923v50.319l62.059-62.059h-22.923zm774.345 434.046v-50.318l-62.061 62.059h22.923v50.319l62.058-62.06h-22.92zM642.397 34.767v-50.319l-62.059 62.06h22.923v50.318l62.059-62.06h-22.923zm0 643.936v-50.319l-62.059 62.06h22.923v50.318l62.059-62.059h-22.923zM1416.74-94.383v-50.319l-62.06 62.06h22.92v50.318l62.06-62.06h-22.92zM642.398 115.506V65.187l-62.059 62.06h22.923v50.318l62.059-62.059h-22.923zm774.342 434.046v-50.318l-62.06 62.059h22.92v50.319l62.06-62.06h-22.92zM642.397 356.804v-50.318l-62.059 62.059h22.923v50.318l62.059-62.059h-22.923zm0 643.936v-50.319l-62.059 62.059h22.923v50.32l62.059-62.06h-22.923zm774.343-773.086v-50.319l-62.06 62.06h22.92v50.318l62.06-62.059h-22.92zm0 643.936v-50.319l-62.06 62.06h22.92v50.318l62.06-62.059h-22.92zm-774.342 209.89v-50.32l-62.059 62.06h22.923v50.32l62.059-62.06h-22.923z"/></mask><path d="M158.783 196.345v-50.318l-62.06 62.059h22.923v50.318l62.06-62.059h-22.923zm0 643.936v-50.319l-62.06 62.06h22.923v50.318l62.06-62.059h-22.923zM933.126 67.194V16.876l-62.059 62.059h22.922v50.318l62.059-62.059h-22.922zm0 643.936v-50.318l-62.059 62.059h22.922v50.318l62.059-62.059h-22.922zM158.783 518.382v-50.318l-62.06 62.059h22.923v50.318l62.06-62.059h-22.923zm0 643.938V1112l-62.06 62.06h22.923v50.32l62.06-62.06h-22.923zm774.343-773.088v-50.318l-62.059 62.059h22.922v50.318l62.059-62.059h-22.922zm0 643.938v-50.321l-62.059 62.061h22.922v50.32l62.059-62.06h-22.922zM545.675 132.049V81.731l-62.06 62.059h22.923v50.318l62.059-62.059h-22.922zm0 643.936v-50.318l-62.06 62.059h22.923v50.318l62.059-62.059h-22.922zM1320.02 2.899V-47.42l-62.06 62.06h22.92v50.318l62.06-62.06h-22.92zm0 643.935v-50.318l-62.06 62.059h22.92v50.319l62.06-62.06h-22.92zM545.675 856.723v-50.318l-62.06 62.059h22.923v50.319l62.06-62.06h-22.923zm0-402.637v-50.318l-62.06 62.059h22.923v50.319l62.059-62.06h-22.922zm0 643.934v-50.32l-62.06 62.06h22.923v50.32l62.059-62.06h-22.922zm774.345-773.084v-50.318l-62.06 62.059h22.92v50.318l62.06-62.059h-22.92zm0 643.936v-50.318l-62.06 62.059h22.92v50.317l62.06-62.058h-22.92zM352.229 163.917v-50.318l-62.06 62.059h22.923v50.318l62.06-62.059h-22.923zm0 643.936v-50.319l-62.06 62.06h22.923v50.318l62.06-62.059h-22.923zM1126.57 34.767v-50.319l-62.06 62.06h22.93v50.318l62.05-62.06h-22.92zM352.229 244.656v-50.318l-62.06 62.059h22.923v50.318l62.059-62.059h-22.922zm774.341 434.047v-50.319l-62.06 62.06h22.93v50.318l62.05-62.059h-22.92zM352.229 485.955v-50.318l-62.06 62.059h22.923v50.318l62.06-62.059h-22.923zm0 643.935v-50.32l-62.06 62.06h22.923v50.32l62.06-62.06h-22.923zm774.341-773.086v-50.318l-62.06 62.059h22.93v50.319l62.05-62.06h-22.92zm0 643.936v-50.319l-62.06 62.059h22.93v50.32l62.05-62.06h-22.92zM739.121 99.622V49.303l-62.06 62.059h22.923v50.319l62.059-62.06h-22.922zm0 643.935v-50.318l-62.06 62.059h22.923v50.319l62.059-62.06h-22.922zM1513.46-29.529v-50.318l-62.06 62.06h22.93V32.53l62.06-62.06h-22.93zm0 643.936v-50.318l-62.06 62.059h22.93v50.318l62.06-62.059h-22.93zM739.121 421.659v-50.318l-62.06 62.059h22.923v50.318l62.059-62.059h-22.922zm0 643.931v-50.31l-62.06 62.06h22.923v50.31l62.059-62.06h-22.922zm774.339-773.081V242.19l-62.06 62.059h22.93v50.319l62.06-62.059h-22.93zm0 643.935v-50.318l-62.06 62.059h22.93v50.319l62.06-62.06h-22.93zM158.783 35.326v-50.319l-62.06 62.06h22.923v50.318l62.06-62.06h-22.923zm0 643.935v-50.318l-62.06 62.059h22.923v50.319l62.06-62.06h-22.923zM933.126-93.825v-50.318l-62.059 62.06h22.922v50.318l62.059-62.06h-22.922zm-774.343 209.89V65.746l-62.06 62.059h22.923v50.319l62.059-62.059h-22.922zm774.343 434.046v-50.318l-62.059 62.059h22.922v50.319l62.059-62.06h-22.922zM158.783 357.363v-50.318l-62.06 62.059h22.923v50.319l62.06-62.06h-22.923zm0 643.937v-50.319l-62.06 62.059h22.923v50.32l62.06-62.06h-22.923zm774.343-773.087v-50.319l-62.059 62.06h22.922v50.318l62.059-62.059h-22.922zm0 643.936V821.83l-62.059 62.059h22.922v50.319l62.059-62.059h-22.922zM545.675-28.97v-50.318l-62.06 62.059h22.923V33.09l62.059-62.06h-22.922zm0 643.936v-50.319l-62.06 62.06h22.923v50.318l62.059-62.059h-22.922zM1320.02-158.12v-50.319l-62.06 62.06h22.92v50.318l62.06-62.059h-22.92zm0 643.936v-50.319l-62.06 62.06h22.92v50.318l62.06-62.059h-22.92zM545.675 293.068V242.75l-62.06 62.059h22.923v50.318l62.059-62.059h-22.922zm0 643.935v-50.318l-62.06 62.06h22.923v50.318l62.059-62.06h-22.922zm774.345-773.086v-50.318l-62.06 62.059h22.92v50.319l62.06-62.06h-22.92zM545.675 373.806v-50.318l-62.06 62.059h22.923v50.319l62.06-62.06h-22.923zm774.345 434.047v-50.319l-62.06 62.06h22.92v50.318l62.06-62.059h-22.92zM352.229 2.898V-47.42l-62.06 62.06h22.923v50.318l62.06-62.06h-22.923zm0 643.936v-50.318l-62.06 62.059h22.923v50.318l62.06-62.059h-22.923zm774.341-773.086v-50.318l-62.06 62.059h22.93v50.318l62.05-62.059h-22.92zm0 643.936v-50.318l-62.06 62.059h22.93v50.318l62.05-62.059h-22.92zM352.229 324.936v-50.318l-62.06 62.059h22.923v50.319l62.06-62.06h-22.923zm0 643.936v-50.318l-62.06 62.059h22.923v50.317l62.06-62.058h-22.923zm774.341-773.086v-50.319l-62.06 62.059h22.93v50.319l62.05-62.059h-22.92zm0 643.935v-50.318l-62.06 62.059h22.93v50.319l62.05-62.06h-22.92zM352.229 1049.61v-50.318l-62.06 62.058h22.923v50.32l62.059-62.06h-22.922zM739.121-61.397v-50.319l-62.06 62.06h22.923V.662l62.059-62.06h-22.922zm0 643.936V532.22l-62.06 62.059h22.923v50.319l62.059-62.059h-22.922zm774.339-773.086v-50.319l-62.06 62.059h22.93v50.319l62.06-62.059h-22.93zm0 643.935V403.07l-62.06 62.059h22.93v50.319l62.06-62.06h-22.93zM739.121 260.64v-50.318l-62.06 62.06h22.923V322.7l62.059-62.06h-22.922zm0 643.936v-50.318l-62.06 62.059h22.923v50.318l62.059-62.059h-22.922zM1513.46 131.49V81.171l-62.06 62.06h22.93v50.318l62.06-62.059h-22.93zm0 643.936v-50.319l-62.06 62.059h22.93v50.319l62.06-62.059h-22.93zM158.783 276.854v-50.318l-62.06 62.059h22.923v50.318l62.06-62.059h-22.923zm0 643.936v-50.318l-62.06 62.059h22.923v50.318l62.06-62.059h-22.923zm774.343-773.086V97.385l-62.059 62.059h22.922v50.319l62.059-62.059h-22.922zm0 643.935v-50.318l-62.059 62.059h22.922v50.319l62.059-62.06h-22.922zM158.783 598.891v-50.318l-62.06 62.059h22.923v50.319l62.06-62.06h-22.923zm0 643.939v-50.32l-62.06 62.06h22.923v50.32l62.06-62.06h-22.923zm774.343-773.089v-50.318l-62.059 62.059h22.922V531.8l62.059-62.059h-22.922z" stroke="#171717" stroke-width="9.458" mask="url(#a)"/><path d="M158.783 679.63v-50.318l-62.06 62.059h22.923v50.318l62.059-62.059h-22.922zm774.343 434.05v-50.32l-62.059 62.06h22.922v50.32l62.059-62.06h-22.922zM545.675 212.558V162.24l-62.06 62.059h22.923v50.319l62.059-62.06h-22.922zm0 643.936v-50.318l-62.06 62.059h22.923v50.318l62.059-62.059h-22.922zM1320.02 83.408V33.089l-62.06 62.06h22.92v50.318l62.06-62.06h-22.92zm0 643.936v-50.319l-62.06 62.059h22.92v50.319l62.06-62.059h-22.92zM545.675 534.596v-50.319l-62.06 62.06h22.923v50.318l62.059-62.059h-22.922zm0 643.934v-50.32l-62.06 62.06h22.923v50.32l62.059-62.06h-22.922zm774.345-773.085v-50.318l-62.06 62.059h22.92v50.319l62.06-62.06h-22.92zm0 643.935v-50.317l-62.06 62.057h22.92v50.32l62.06-62.06h-22.92zM352.229 244.426v-50.318l-62.06 62.059h22.923v50.319l62.06-62.06h-22.923zm0 643.936v-50.318l-62.06 62.059h22.923v50.318l62.06-62.059h-22.923zm774.341-773.086V64.958l-62.06 62.059h22.93v50.318l62.05-62.059h-22.92zm0 643.936v-50.318l-62.06 62.059h22.93v50.318l62.05-62.059h-22.92zM352.229 566.464v-50.318l-62.06 62.059h22.923v50.318l62.06-62.059h-22.923zm0 643.936v-50.32l-62.06 62.06h22.923v50.32l62.06-62.06h-22.923zm774.341-773.086v-50.319l-62.06 62.059h22.93v50.319l62.05-62.059h-22.92zm0 643.936v-50.32l-62.06 62.06h22.93v50.32l62.05-62.06h-22.92zM739.121 180.131v-50.319l-62.06 62.06h22.923v50.318l62.059-62.059h-22.922zm0 643.936v-50.319l-62.06 62.059h22.923v50.319l62.059-62.059h-22.922zM1513.46 50.98V.663l-62.06 62.06h22.93v50.318l62.06-62.06h-22.93zm0 643.936v-50.318l-62.06 62.059h22.93v50.319l62.06-62.06h-22.93zM739.121 904.805v-50.318l-62.06 62.059h22.923v50.319l62.06-62.06h-22.923zm0-402.637V451.85l-62.06 62.059h22.923v50.319l62.059-62.06h-22.922zm0 643.932v-50.31l-62.06 62.06h22.923v50.31l62.059-62.06h-22.922zm774.339-773.082v-50.319l-62.06 62.06h22.93v50.318l62.06-62.059h-22.93zm0 643.932v-50.315l-62.06 62.055h22.93v50.32l62.06-62.06h-22.93zM158.783 115.835V65.517l-62.06 62.059h22.923v50.318l62.06-62.059h-22.923zm0 643.936v-50.319l-62.06 62.06h22.923v50.318l62.06-62.059h-22.923zM933.126-13.315v-50.319l-62.059 62.06h22.922v50.318l62.059-62.06h-22.922zm0 643.936v-50.319l-62.059 62.06h22.922v50.318l62.059-62.059h-22.922zM158.783 437.873v-50.319l-62.06 62.06h22.923v50.318l62.06-62.059h-22.923zm0 643.937v-50.32l-62.06 62.06h22.923v50.32l62.06-62.06h-22.923zm774.343-773.088v-50.318l-62.059 62.059h22.922v50.319l62.059-62.06h-22.922zm0 643.936v-50.319l-62.059 62.06h22.922v50.321l62.059-62.062h-22.922zM545.675 51.54V1.222l-62.06 62.059h22.923v50.318l62.059-62.06h-22.922zm0 643.935v-50.318l-62.06 62.06h22.923v50.318l62.059-62.06h-22.922zM1320.02-77.61v-50.319l-62.06 62.059h22.92v50.319l62.06-62.06h-22.92zm0 643.935v-50.318l-62.06 62.059h22.92v50.318l62.06-62.059h-22.92zM545.675 373.577v-50.318l-62.06 62.059h22.923v50.318l62.059-62.059h-22.922zm0 643.933v-50.315l-62.06 62.055h22.923v50.32l62.059-62.06h-22.922zm774.345-773.083v-50.319l-62.06 62.059h22.92v50.319l62.06-62.059h-22.92zm0 643.935v-50.318l-62.06 62.059h22.92v50.319l62.06-62.06h-22.92zM352.229 83.408V33.089l-62.06 62.06h22.923v50.318l62.06-62.06h-22.923zm0 643.935v-50.318l-62.06 62.059h22.923v50.319l62.06-62.06h-22.923zM1126.57-45.742v-50.319L1064.51-34h22.93v50.318l62.05-62.06h-22.92zm0 643.935v-50.318l-62.06 62.059h22.93v50.319l62.05-62.06h-22.92zM352.229 405.446v-50.319l-62.06 62.059h22.923v50.319l62.06-62.059h-22.923zm0 643.934v-50.317l-62.06 62.057h22.923v50.32l62.06-62.06h-22.923zm774.341-773.085v-50.319l-62.06 62.06h22.93v50.318l62.05-62.059h-22.92zm0 643.936v-50.319l-62.06 62.059h22.93v50.319l62.05-62.059h-22.92zM739.121 19.112v-50.318l-62.06 62.059h22.923v50.318l62.059-62.059h-22.922zm0 643.936v-50.319l-62.06 62.06h22.923v50.318l62.059-62.059h-22.922zm774.339-773.086v-50.319l-62.06 62.06h22.93v50.318l62.06-62.059h-22.93zm0 643.936v-50.319l-62.06 62.06h22.93v50.318l62.06-62.059h-22.93zM739.121 341.15v-50.318l-62.06 62.059h22.923v50.318l62.059-62.059h-22.922zm0 643.935v-50.318l-62.06 62.06h22.923v50.313l62.059-62.055h-22.922zm774.339-773.086v-50.318l-62.06 62.059h22.93v50.319l62.06-62.06h-22.93zM739.121 421.888V371.57l-62.06 62.059h22.923v50.319l62.06-62.06h-22.923zm774.339 434.047v-50.319l-62.06 62.06h22.93v50.318l62.06-62.059h-22.93zM62.06 211.999v-50.318L0 223.74h22.923v50.319l62.06-62.06H62.058zm0 643.936v-50.319L0 867.676h22.923v50.318l62.06-62.059H62.058zM836.402 82.849V32.53l-62.059 62.06h22.923v50.318l62.059-62.06h-22.923zm0 643.936v-50.319l-62.059 62.06h22.923v50.318l62.059-62.059h-22.923zM62.06 534.037v-50.318L0 545.778h22.923v50.318l62.06-62.059H62.058zm0 643.933v-50.32L0 1189.71h22.923v50.32l62.06-62.06H62.058zm774.342-773.084v-50.318l-62.059 62.059h22.923v50.319l62.059-62.06h-22.923zm0 643.934v-50.317l-62.059 62.057h22.923v50.32l62.059-62.06h-22.923zM448.951 147.703V97.385l-62.059 62.059h22.923v50.319l62.059-62.06h-22.923zm0 643.936v-50.318l-62.059 62.059h22.923v50.318l62.059-62.059h-22.923zM1223.3 18.553v-50.318l-62.06 62.06h22.92v50.317l62.06-62.059h-22.92zm0 643.936v-50.318l-62.06 62.059h22.92v50.318l62.06-62.059h-22.92zM448.951 469.741v-50.318l-62.059 62.059h22.923V531.8l62.059-62.059h-22.923zm0 643.939v-50.32l-62.059 62.06h22.923v50.32l62.059-62.06h-22.923zM1223.3 340.59v-50.318l-62.06 62.059h22.92v50.319l62.06-62.06h-22.92zm0 643.936v-50.318l-62.06 62.059h22.92v50.323l62.06-62.064h-22.92zM448.952 1194.42v-50.32l-62.059 62.06h22.923v50.31l62.059-62.05h-22.923zM255.505 179.572v-50.319l-62.059 62.06h22.923v50.318l62.059-62.059h-22.923zm0 643.936v-50.319l-62.059 62.059h22.923v50.319l62.059-62.059h-22.923zM1029.85 50.422V.102l-62.061 62.06h22.923v50.318l62.058-62.06h-22.92zm0 643.935v-50.318l-62.061 62.059h22.923v50.319l62.058-62.06h-22.92zM255.505 501.609v-50.318l-62.059 62.059h22.923v50.319l62.059-62.06h-22.923zm0 643.931v-50.31l-62.059 62.06h22.923v50.31l62.059-62.06h-22.923zm774.345-773.081V322.14l-62.061 62.06h22.923v50.318l62.058-62.059h-22.92zm0 643.931v-50.314l-62.061 62.064h22.923v50.31l62.058-62.06h-22.92zM642.397 115.276V64.958l-62.059 62.059h22.923v50.318l62.059-62.059h-22.923zm0 643.936v-50.318l-62.059 62.059h22.923v50.318l62.059-62.059h-22.923zM1416.74-13.874v-50.319l-62.06 62.06h22.92v50.318l62.06-62.06h-22.92zm0 643.936v-50.319l-62.06 62.06h22.92v50.318l62.06-62.059h-22.92zM642.397 437.313v-50.318l-62.059 62.059h22.923v50.319l62.059-62.06h-22.923zm0 643.937v-50.32l-62.059 62.06h22.923v50.32l62.059-62.06h-22.923zm774.343-773.087v-50.318l-62.06 62.059h22.92v50.318l62.06-62.059h-22.92zm0 643.936v-50.318l-62.06 62.059h22.92v50.32l62.06-62.061h-22.92zM62.06 50.98V.663L0 62.722h22.923v50.318l62.06-62.06H62.058zm0 643.936v-50.318L0 706.657h22.923v50.319l62.06-62.06H62.058zM836.402-78.17v-50.318l-62.059 62.06h22.923v50.317l62.059-62.059h-22.923zm0 643.936v-50.318l-62.059 62.059h22.923v50.318l62.059-62.059h-22.923zM62.06 373.018v-50.319L0 384.759h22.923v50.318l62.06-62.059H62.058zm0 643.932v-50.315L0 1028.69h22.923v50.32l62.06-62.06H62.058zm774.342-773.082v-50.319l-62.059 62.059h22.923v50.319l62.059-62.059h-22.923zm0 643.935v-50.318l-62.059 62.059h22.923v50.319l62.059-62.06h-22.923zM448.951-13.315v-50.319l-62.059 62.06h22.923v50.318l62.059-62.06h-22.923zm0 643.936v-50.319l-62.059 62.06h22.923v50.318l62.059-62.059h-22.923zM1223.3-142.465v-50.319l-62.06 62.059h22.92v50.319l62.06-62.059h-22.92zm0 643.935v-50.318l-62.06 62.059h22.92v50.319l62.06-62.06h-22.92zM448.952 711.359v-50.318L386.893 723.1h22.923v50.319l62.059-62.06h-22.923zm-.001-402.637v-50.318l-62.059 62.059h22.923v50.318l62.059-62.059h-22.923zm0 643.936v-50.319l-62.059 62.06h22.923v50.321l62.059-62.062h-22.923zM1223.3 179.572v-50.319l-62.06 62.06h22.92v50.318l62.06-62.059h-22.92zm0 643.936v-50.319l-62.06 62.059h22.92v50.319l62.06-62.059h-22.92zM255.505 18.553v-50.318l-62.059 62.06h22.923v50.317l62.059-62.059h-22.923zm0 643.936v-50.318l-62.059 62.059h22.923v50.318l62.059-62.059h-22.923zm774.345-773.086v-50.318l-62.061 62.059h22.923v50.318l62.058-62.059h-22.92zm0 643.936V483.02l-62.061 62.06h22.923v50.318l62.058-62.059h-22.92zM255.505 340.591v-50.319l-62.059 62.059h22.923v50.319l62.059-62.059h-22.923zm0 643.935v-50.318l-62.059 62.059h22.923v50.323l62.059-62.064h-22.923zM1029.85 211.44v-50.318l-62.061 62.059h22.923v50.318l62.058-62.059h-22.92zm0 643.936v-50.318l-62.061 62.059h22.923v50.318l62.058-62.059h-22.92zM642.397-45.742v-50.319L580.338-34h22.923v50.318l62.059-62.06h-22.923zm0 643.935v-50.318l-62.059 62.059h22.923v50.319l62.059-62.06h-22.923zm774.343-773.086v-50.318l-62.06 62.059h22.92v50.319l62.06-62.06h-22.92zm0 643.936v-50.318l-62.06 62.059h22.92v50.318l62.06-62.059h-22.92zM642.397 276.295v-50.319l-62.059 62.06h22.923v50.318l62.059-62.059h-22.923zm0 643.935v-50.318l-62.059 62.059h22.923v50.319l62.059-62.06h-22.923zm774.343-773.086V96.826l-62.06 62.059h22.92v50.319l62.06-62.06h-22.92zm0 643.936v-50.318l-62.06 62.059h22.92v50.319l62.06-62.06h-22.92zM62.06 292.509V242.19L0 304.249h22.923v50.319l62.06-62.059H62.058zm0 643.935v-50.318L0 948.185h22.923v50.319l62.06-62.06H62.058zm774.342-773.086V113.04l-62.059 62.059h22.923v50.318l62.059-62.059h-22.923z" stroke="#171717" stroke-width="9.458" mask="url(#a)"/><path d="M62.06 373.247v-50.318L0 384.988h22.923v50.319l62.06-62.06H62.058zm774.342 434.047v-50.318l-62.059 62.059h22.923v50.318l62.059-62.059h-22.923zM62.06 614.546v-50.318L0 626.287h22.923v50.318l62.06-62.059H62.058zm0 643.934v-50.32L0 1270.22h22.923v50.32l62.06-62.06H62.058zm774.342-773.084v-50.319l-62.059 62.059h22.923v50.319l62.059-62.059h-22.923zm0 643.934v-50.32l-62.059 62.06h22.923v50.32l62.059-62.06h-22.923zM448.951 228.213v-50.319l-62.059 62.06h22.923v50.318l62.059-62.059h-22.923zm0 643.935V821.83l-62.059 62.059h22.923v50.319l62.059-62.06h-22.923zM1223.3 99.063v-50.32l-62.06 62.059h22.92v50.319l62.06-62.06h-22.92zm0 643.935V692.68l-62.06 62.059h22.92v50.319l62.06-62.06h-22.92zM448.951 550.25v-50.318l-62.059 62.059h22.923v50.319l62.059-62.06h-22.923zm0 643.94v-50.32l-62.059 62.06h22.923v50.32l62.059-62.06h-22.923zM1223.3 421.1v-50.319l-62.06 62.06h22.92v50.318l62.06-62.059h-22.92zm0 643.94v-50.32l-62.06 62.06h22.92v50.31l62.06-62.05h-22.92zM255.505 260.081v-50.318l-62.059 62.059h22.923v50.318l62.059-62.059h-22.923zm0 643.936v-50.318l-62.059 62.059h22.923v50.318l62.059-62.059h-22.923zm774.345-773.086V80.612l-62.061 62.06h22.923v50.318l62.058-62.059h-22.92zm0 643.936v-50.319l-62.061 62.06h22.923v50.318l62.058-62.059h-22.92zM255.505 582.119v-50.318l-62.059 62.059h22.923v50.318l62.059-62.059h-22.923zm0 643.931v-50.31l-62.059 62.06h22.923v50.31l62.059-62.06h-22.923zm774.345-773.082V402.65l-62.061 62.059h22.923v50.318l62.058-62.059h-22.92zm0 643.932v-50.31l-62.061 62.05h22.923v50.32l62.058-62.06h-22.92zM642.397 195.785v-50.318l-62.059 62.059h22.923v50.319l62.059-62.06h-22.923zm0 643.936v-50.318l-62.059 62.059h22.923v50.318l62.059-62.059h-22.923zM1416.74 66.635V16.317l-62.06 62.06h22.92v50.317l62.06-62.059h-22.92zm0 643.936v-50.318l-62.06 62.059h22.92v50.318l62.06-62.059h-22.92zM642.397 517.823v-50.318l-62.059 62.059h22.923v50.319l62.059-62.06h-22.923zm0 643.937v-50.32l-62.059 62.06h22.923v50.32l62.059-62.06h-22.923zm774.343-773.088v-50.318l-62.06 62.059h22.92v50.319l62.06-62.06h-22.92zM642.398 598.561v-50.318l-62.059 62.059h22.923v50.319l62.059-62.06h-22.923zm774.342 434.049v-50.32l-62.06 62.06h22.92v50.32l62.06-62.06h-22.92zM62.06 131.49V81.171L0 143.231h22.923v50.318l62.06-62.059H62.058zm0 643.936v-50.319L0 787.166h22.923v50.319l62.06-62.059H62.058zM836.402 2.34v-50.32l-62.059 62.06h22.923v50.318l62.059-62.06h-22.923zm0 643.935v-50.318l-62.059 62.059h22.923v50.319l62.059-62.06h-22.923zM62.06 453.527v-50.318L0 465.269h22.923v50.318l62.06-62.06H62.058zm0 643.933v-50.31L0 1109.2h22.923v50.32l62.06-62.06H62.058zm774.342-773.083v-50.319l-62.059 62.06h22.923v50.318l62.059-62.059h-22.923zm0 643.936v-50.319l-62.059 62.059h22.923v50.317l62.059-62.057h-22.923zM448.951 67.194V16.876l-62.059 62.059h22.923v50.318l62.059-62.059h-22.923zm0 643.936v-50.318l-62.059 62.059h22.923v50.318l62.059-62.059h-22.923zM1223.3-61.956v-50.319l-62.06 62.06h22.92V.103l62.06-62.06h-22.92zm0 643.936v-50.319l-62.06 62.06h22.92v50.318l62.06-62.059h-22.92zM448.951 389.232v-50.318l-62.059 62.059h22.923v50.318l62.059-62.059h-22.923zm0 643.938v-50.321l-62.059 62.061h22.923v50.32l62.059-62.06h-22.923zM1223.3 260.081v-50.318l-62.06 62.059h22.92v50.318l62.06-62.059h-22.92zm0 643.936v-50.318l-62.06 62.059h22.92v50.318l62.06-62.059h-22.92zM255.505 99.063v-50.32l-62.059 62.059h22.923v50.319l62.059-62.06h-22.923zm0 643.935V692.68l-62.059 62.059h22.923v50.319l62.059-62.06h-22.923zM1029.85-30.088v-50.318l-62.061 62.06h22.923V31.97l62.058-62.059h-22.92zm0 643.936V563.53l-62.061 62.059h22.923v50.318l62.058-62.059h-22.92zM255.505 823.737v-50.318l-62.059 62.059h22.923v50.318l62.059-62.059h-22.923zm0-402.637v-50.319l-62.059 62.06h22.923v50.318l62.059-62.059h-22.923zm0 643.94v-50.32l-62.059 62.06h22.923v50.31l62.059-62.05h-22.923zm774.345-773.091v-50.318l-62.061 62.059h22.923v50.319l62.058-62.06h-22.92zm-774.345 209.89V451.52l-62.059 62.059h22.923v50.319l62.059-62.059h-22.923zm774.345 434.046v-50.318l-62.061 62.059h22.923v50.319l62.058-62.06h-22.92zM642.397 34.767v-50.319l-62.059 62.06h22.923v50.318l62.059-62.06h-22.923zm0 643.936v-50.319l-62.059 62.06h22.923v50.318l62.059-62.059h-22.923zM1416.74-94.383v-50.319l-62.06 62.06h22.92v50.318l62.06-62.06h-22.92zM642.398 115.506V65.187l-62.059 62.06h22.923v50.318l62.059-62.059h-22.923zm774.342 434.046v-50.318l-62.06 62.059h22.92v50.319l62.06-62.06h-22.92zM642.397 356.804v-50.318l-62.059 62.059h22.923v50.318l62.059-62.059h-22.923zm0 643.936v-50.319l-62.059 62.059h22.923v50.32l62.059-62.06h-22.923zm774.343-773.086v-50.319l-62.06 62.06h22.92v50.318l62.06-62.059h-22.92zm0 643.936v-50.319l-62.06 62.06h22.92v50.318l62.06-62.059h-22.92zm-774.342 209.89v-50.32l-62.059 62.06h22.923v50.32l62.059-62.06h-22.923z" stroke="#171717" stroke-width="9.458" mask="url(#a)"/><path opacity=".5" fill-rule="evenodd" clip-rule="evenodd" d="M1320.02 646.835v-50.319l-62.06 62.059h22.92v50.32l62.06-62.06h-22.92zM545.674 856.723v-50.318l-62.059 62.059h22.923v50.318l62.059-62.059h-22.923zM1126.57 34.769v-50.32l-62.06 62.06h22.92v50.32l62.06-62.06h-22.92zM352.229 244.656v-50.319l-62.06 62.06h22.924v50.318l62.059-62.059h-22.923zm-193.447-128.59v-50.32l-62.059 62.06h22.923v50.319l62.06-62.059h-22.924zm1161.238 47.853v-50.32l-62.06 62.059h22.92v50.32l62.06-62.059h-22.92zM545.674 373.808v-50.32l-62.06 62.059h22.924v50.32l62.059-62.059h-22.923zm580.896 465.915v-50.319l-62.06 62.059h22.92v50.319l62.06-62.059h-22.92zM352.229 1049.61v-50.317l-62.06 62.057h22.924v50.32l62.059-62.06h-22.923zm580.896-579.869v-50.317l-62.059 62.059h22.923V531.8l62.06-62.059h-22.924zM158.782 679.63v-50.318l-62.059 62.059h22.923v50.319l62.06-62.06h-22.924zm1354.678 15.287v-50.319l-62.06 62.059h22.93v50.319l62.06-62.059h-22.93zM739.118 904.806v-50.319l-62.059 62.059h22.923v50.319l62.059-62.059h-22.923zm774.342-692.804v-50.32l-62.06 62.059h22.93v50.32l62.06-62.059h-22.93zM739.118 421.889V371.57l-62.059 62.06h22.923v50.318l62.059-62.059h-22.923zm484.172 562.636v-50.318l-62.06 62.059h22.93v50.314l62.06-62.055h-22.93zm0-483.053v-50.32l-62.06 62.06h22.93v50.319l62.06-62.059h-22.93zM448.95 711.358V661.04l-62.059 62.059h22.924v50.319l62.059-62.06H448.95zM836.402 163.36v-50.32l-62.06 62.06h22.924v50.319l62.059-62.059h-22.923zM62.06 373.25v-50.32L0 384.989h22.924v50.32l62.06-62.059H62.058zm1354.68 15.424v-50.319l-62.06 62.059h22.93v50.319l62.05-62.059h-22.92zM642.397 598.562v-50.318l-62.059 62.059h22.923v50.319l62.06-62.06h-22.924zm387.453 15.286v-50.319l-62.063 62.059h22.924v50.319l62.059-62.059h-22.92zM255.503 823.74v-50.32l-62.059 62.06h22.923v50.319l62.06-62.059h-22.924zm774.347-531.79v-50.319l-62.063 62.059h22.924v50.319l62.059-62.059h-22.92zM255.503 501.84v-50.319l-62.059 62.059h22.923v50.319l62.06-62.059h-22.924zm386.894-386.333v-50.32l-62.059 62.06h22.923v50.319l62.06-62.059h-22.924zm774.343 756.084v-50.32l-62.06 62.06h22.93v50.32l62.05-62.06h-22.92zM642.398 1081.48v-50.32l-62.059 62.06h22.923v50.32l62.059-62.06h-22.923z" fill="#D9D9D9"/></mask><g mask="url(#b)"><path fill="url(#c)" d="M0-81.751h1536.13v1246.15H0z"/></g></g><defs><radialGradient id="c" cx="0" cy="0" r="1" gradientUnits="userSpaceOnUse" gradientTransform="rotate(152.023 742.697 196.965) scale(1198 3042.96)"><stop stop-color="#0EAB46"/><stop offset="1" stop-color="#0EAB46" stop-opacity="0"/></radialGradient></defs></svg>