<svg width="1080" height="1080" viewBox="0 0 1080 1080" fill="none" xmlns="http://www.w3.org/2000/svg">
<rect width="1080" height="1080" rx="540" fill="#171717"/>
<path fill-rule="evenodd" clip-rule="evenodd" d="M493.44 419.576C499.856 418.094 506.155 415.482 511.852 411.876C517.841 408.089 523.175 403.217 527.352 397.478C530.838 392.607 533.578 387.148 535.052 381.156C535.981 377.369 536.471 373.374 536.298 369.235C536.144 365.457 535.516 361.571 534.278 357.603C532.685 352.506 530.146 347.39 526.606 342.121C528.535 346.812 529.746 351.277 530.538 355.597C531.412 360.378 531.593 364.87 531.284 369.163C531.011 372.823 530.356 376.293 529.336 379.592C527.734 384.744 525.259 389.444 522.046 393.583C518.26 398.563 513.463 402.729 508.139 405.974C504.071 408.45 499.683 410.384 495.178 411.695L490.419 412.825C481.9 414.831 473.044 414.406 465.589 410.891L465.244 410.728C465.153 410.637 465.061 410.547 464.961 410.457C461.967 408.459 459.355 406.109 457.016 403.335C454.604 400.47 452.501 397.496 450.927 393.8C451.063 398.057 451.81 401.871 453.294 405.54C454.54 408.595 456.324 411.288 458.372 413.81L419.527 442.315C416.468 437.046 415.022 432.907 414.357 429.599C412.946 422.604 415.194 419.666 415.194 419.666C415.194 419.666 411.417 421.926 410.753 429.807C410.407 433.856 411.208 439.206 413.593 446.482C413.638 446.581 413.684 446.68 413.739 446.771L413.966 448.669C414.421 452.401 415.877 456.044 415.75 459.794C415.486 468.136 405.829 473.794 397.228 470.829L395.645 470.287L394.188 471.128C385.733 476.053 378.989 476.56 373.919 475.204C369.651 474.074 366.638 471.679 364.891 469.917C370.142 464.521 383.012 451.235 387.344 446.192L389.537 443.653L388.973 443.101C383.703 437.868 377.141 437.841 370.47 440.779C360.185 445.325 349.664 457.553 345.932 462.171C344.858 461.828 341.536 459.297 340.08 457.842C337.859 455.628 335.875 451.886 335.02 445.74L334.81 444.249L333.6 443.345C322.414 434.976 320.293 419.964 331.024 411.044L332.38 409.914L332.326 408.152C332.171 403.633 334.237 399.087 337.031 394.776C341.727 387.5 348.59 380.93 352.831 376.303C370.788 356.681 392.013 331.963 405.683 302.897C408.195 297.555 409.233 293.895 410.015 291.021C410.643 288.735 410.999 287.036 412.182 285.264C414.895 281.224 421.256 276.886 439.905 265.299L440.934 264.658L441.37 263.528C442.981 259.353 447.768 251.842 458.244 248.091L460.611 247.242L460.657 244.747C460.82 234.914 465.571 202.884 498.946 180C508.921 194.723 507.784 218.348 506.319 227.404L505.19 234.372L511.543 231.209C527.68 223.174 545.628 223.301 563.157 222.397C579.486 221.556 595.458 219.857 609.593 211.217C609.22 213.693 608.51 216.612 607.19 219.559L604.669 225.18L610.849 224.629C629.452 222.957 647.173 227.946 664.73 233.477C680.939 238.584 697.022 244.16 713.441 245.976C709.873 250.342 703.401 256.686 693.526 260.753L688.93 262.651L692.143 266.429C695.493 270.37 723.125 300.62 755.899 307.841C751.412 313.634 743.822 319.454 733.164 320.9L730.051 321.325L730.024 324.443C729.969 328.953 730.697 345.492 737.213 361.083C741.109 370.428 747.071 379.393 755.999 385.449C750.247 389.679 740.855 391.432 731.316 389.932L727.748 389.371L727.157 392.896C723.525 414.216 727.13 441.538 740.982 460.517C734.283 463.437 724.172 463.879 716.554 459.18L714.414 457.86L712.422 459.379C705.769 464.431 683.607 490.686 695.202 525.03C676.307 528.943 661.99 521.27 649.813 513.814L646.727 511.925L644.816 514.98C636.797 527.777 630.508 541.741 626.248 556.563L624.929 561.163H733.828L456.597 891V631.658H348.217L493.44 419.576ZM426.698 294.474C426.434 295.513 426.298 296.597 426.298 297.709C426.298 302.725 429.092 307.19 433.452 310.082C440.687 308.41 446.176 303.186 447.095 296.796C448.114 296.634 449.097 296.399 450.017 296.083C452.137 295.359 453.867 294.456 455.35 293.479C458.272 291.545 459.755 289.828 459.755 289.828C459.755 289.828 456.288 290.904 451.255 291.021C449.753 291.057 448.224 290.84 446.504 290.714C444.456 290.551 442.235 290.362 439.978 289.521C437.958 288.906 436.101 288.454 434.372 288.454C432.178 288.445 430.285 288.825 428.647 289.494C427.063 290.154 425.797 290.895 424.723 291.799C421.802 294.293 420.81 296.814 420.81 296.814C420.81 296.814 422.967 295.197 426.698 294.474ZM512.635 256.343C527.434 255.53 541.486 256.216 554.765 258.078C569.246 260.112 582.707 263.682 595.112 268.544C603.003 271.635 610.466 275.223 617.447 279.335C634.44 289.349 648.547 302.49 659.078 318.352C669.326 333.788 676.161 351.747 679.128 371.711C680.303 379.637 680.875 387.862 680.857 396.394C680.839 402.847 680.511 409.472 679.792 416.259C678.773 425.821 677.044 435.672 674.514 445.822C671.911 456.215 668.534 466.88 664.22 477.816C670.81 464.376 675.961 451.262 679.638 438.465C683.797 423.968 686.155 409.932 686.746 396.52C687.147 387.663 686.719 379.077 685.645 370.817C682.887 349.749 675.715 330.779 664.957 314.511C653.881 297.754 638.964 283.8 620.879 273.506C613.507 269.312 605.615 265.715 597.233 262.85C584.254 258.413 570.138 255.629 555.139 254.608C541.632 253.695 527.443 254.291 512.635 256.343ZM338.041 412.228C341.19 412.725 344.057 415.708 344.476 418.329C342.983 417.1 341.864 416.367 339.88 416.666C335.993 417.244 333.354 421.058 333.973 425.188C334.064 425.758 334.21 426.309 334.401 426.824C335.402 429.481 337.741 431.352 340.398 431.65C340.972 431.705 341.554 431.696 342.137 431.614C342.346 431.578 342.556 431.542 342.756 431.488C342.983 431.479 343.22 431.452 343.457 431.415C348.417 430.674 351.766 425.613 350.938 420.109C350.101 414.614 345.404 410.746 340.435 411.487C339.588 411.613 338.788 411.867 338.041 412.228Z" fill="white"/>
<path fill-rule="evenodd" clip-rule="evenodd" d="M493.44 419.576C499.856 418.094 506.155 415.482 511.852 411.876C517.841 408.089 523.175 403.217 527.352 397.478C530.838 392.607 533.578 387.148 535.052 381.156C535.981 377.369 536.471 373.374 536.298 369.235C536.144 365.457 535.516 361.571 534.278 357.603C532.685 352.506 530.146 347.39 526.606 342.121C528.535 346.812 529.746 351.277 530.538 355.597C531.412 360.378 531.593 364.87 531.284 369.163C531.011 372.823 530.356 376.293 529.336 379.592C527.734 384.744 525.259 389.444 522.046 393.583C518.26 398.563 513.463 402.729 508.139 405.974C504.071 408.45 499.683 410.384 495.178 411.695L490.419 412.825C481.9 414.831 473.044 414.406 465.589 410.891L465.244 410.728C465.153 410.637 465.061 410.547 464.961 410.457C461.967 408.459 459.355 406.109 457.016 403.335C454.604 400.47 452.501 397.496 450.927 393.8C451.063 398.057 451.81 401.871 453.294 405.54C454.54 408.595 456.324 411.288 458.372 413.81L419.527 442.315C416.468 437.046 415.022 432.907 414.357 429.599C412.946 422.604 415.194 419.666 415.194 419.666C415.194 419.666 411.417 421.926 410.753 429.807C410.407 433.856 411.208 439.206 413.593 446.482C413.638 446.581 413.684 446.68 413.739 446.771L413.966 448.669C414.421 452.401 415.877 456.044 415.75 459.794C415.486 468.136 405.829 473.794 397.228 470.829L395.645 470.287L394.188 471.128C385.733 476.053 378.989 476.56 373.919 475.204C369.651 474.074 366.638 471.679 364.891 469.917C370.142 464.521 383.012 451.235 387.344 446.192L389.537 443.653L388.973 443.101C383.703 437.868 377.141 437.841 370.47 440.779C360.185 445.325 349.664 457.553 345.932 462.171C344.858 461.828 341.536 459.297 340.08 457.842C337.859 455.628 335.875 451.886 335.02 445.74L334.81 444.249L333.6 443.345C322.414 434.976 320.293 419.964 331.024 411.044L332.38 409.914L332.326 408.152C332.171 403.633 334.237 399.087 337.031 394.776C341.727 387.5 348.59 380.93 352.831 376.303C370.788 356.681 392.013 331.963 405.683 302.897C408.195 297.555 409.233 293.895 410.015 291.021C410.643 288.735 410.999 287.036 412.182 285.264C414.895 281.224 421.256 276.886 439.905 265.299L440.934 264.658L441.37 263.528C442.981 259.353 447.768 251.842 458.244 248.091L460.611 247.242L460.657 244.747C460.82 234.914 465.571 202.884 498.946 180C508.921 194.723 507.784 218.348 506.319 227.404L505.19 234.372L511.543 231.209C527.68 223.174 545.628 223.301 563.157 222.397C579.486 221.556 595.458 219.857 609.593 211.217C609.22 213.693 608.51 216.612 607.19 219.559L604.669 225.18L610.849 224.629C629.452 222.957 647.173 227.946 664.73 233.477C680.939 238.584 697.022 244.16 713.441 245.976C709.873 250.342 703.401 256.686 693.526 260.753L688.93 262.651L692.143 266.429C695.493 270.37 723.125 300.62 755.899 307.841C751.412 313.634 743.822 319.454 733.164 320.9L730.051 321.325L730.024 324.443C729.969 328.953 730.697 345.492 737.213 361.083C741.109 370.428 747.071 379.393 755.999 385.449C750.247 389.679 740.855 391.432 731.316 389.932L727.748 389.371L727.157 392.896C723.525 414.216 727.13 441.538 740.982 460.517C734.283 463.437 724.172 463.879 716.554 459.18L714.414 457.86L712.422 459.379C705.769 464.431 683.607 490.686 695.202 525.03C676.307 528.943 661.99 521.27 649.813 513.814L646.727 511.925L644.816 514.98C636.797 527.777 630.508 541.741 626.248 556.563L624.929 561.163H733.828L456.597 891V631.658H348.217L493.44 419.576ZM426.698 294.474C426.434 295.513 426.298 296.597 426.298 297.709C426.298 302.725 429.092 307.19 433.452 310.082C440.687 308.41 446.176 303.186 447.095 296.796C448.114 296.634 449.097 296.399 450.017 296.083C452.137 295.359 453.867 294.456 455.35 293.479C458.272 291.545 459.755 289.828 459.755 289.828C459.755 289.828 456.288 290.904 451.255 291.021C449.753 291.057 448.224 290.84 446.504 290.714C444.456 290.551 442.235 290.362 439.978 289.521C437.958 288.906 436.101 288.454 434.372 288.454C432.178 288.445 430.285 288.825 428.647 289.494C427.063 290.154 425.797 290.895 424.723 291.799C421.802 294.293 420.81 296.814 420.81 296.814C420.81 296.814 422.967 295.197 426.698 294.474ZM512.635 256.343C527.434 255.53 541.486 256.216 554.765 258.078C569.246 260.112 582.707 263.682 595.112 268.544C603.003 271.635 610.466 275.223 617.447 279.335C634.44 289.349 648.547 302.49 659.078 318.352C669.326 333.788 676.161 351.747 679.128 371.711C680.303 379.637 680.875 387.862 680.857 396.394C680.839 402.847 680.511 409.472 679.792 416.259C678.773 425.821 677.044 435.672 674.514 445.822C671.911 456.215 668.534 466.88 664.22 477.816C670.81 464.376 675.961 451.262 679.638 438.465C683.797 423.968 686.155 409.932 686.746 396.52C687.147 387.663 686.719 379.077 685.645 370.817C682.887 349.749 675.715 330.779 664.957 314.511C653.881 297.754 638.964 283.8 620.879 273.506C613.507 269.312 605.615 265.715 597.233 262.85C584.254 258.413 570.138 255.629 555.139 254.608C541.632 253.695 527.443 254.291 512.635 256.343ZM338.041 412.228C341.19 412.725 344.057 415.708 344.476 418.329C342.983 417.1 341.864 416.367 339.88 416.666C335.993 417.244 333.354 421.058 333.973 425.188C334.064 425.758 334.21 426.309 334.401 426.824C335.402 429.481 337.741 431.352 340.398 431.65C340.972 431.705 341.554 431.696 342.137 431.614C342.346 431.578 342.556 431.542 342.756 431.488C342.983 431.479 343.22 431.452 343.457 431.415C348.417 430.674 351.766 425.613 350.938 420.109C350.101 414.614 345.404 410.746 340.435 411.487C339.588 411.613 338.788 411.867 338.041 412.228Z" fill="url(#paint0_linear_126_554)"/>
<defs>
<linearGradient id="paint0_linear_126_554" x1="437.038" y1="212.211" x2="586.093" y2="988.05" gradientUnits="userSpaceOnUse">
<stop stop-color="#19CE59"/>
<stop offset="1" stop-color="#116A32"/>
</linearGradient>
</defs>
</svg>
