<svg width="432" height="711" viewBox="0 0 432 711" fill="none" xmlns="http://www.w3.org/2000/svg">
<path fill-rule="evenodd" clip-rule="evenodd" d="M169.44 239.576C175.856 238.094 182.155 235.482 187.852 231.876C193.841 228.089 199.175 223.217 203.352 217.478C206.838 212.607 209.578 207.148 211.052 201.156C211.981 197.369 212.471 193.374 212.298 189.235C212.144 185.457 211.516 181.571 210.278 177.603C208.685 172.506 206.146 167.39 202.606 162.121C204.535 166.812 205.746 171.277 206.538 175.597C207.412 180.378 207.593 184.87 207.284 189.163C207.011 192.823 206.356 196.293 205.336 199.592C203.734 204.744 201.259 209.444 198.046 213.583C194.26 218.563 189.463 222.729 184.139 225.974C180.071 228.45 175.683 230.384 171.178 231.695L166.419 232.825C157.9 234.831 149.044 234.406 141.589 230.891L141.244 230.728C141.153 230.637 141.061 230.547 140.961 230.457C137.967 228.459 135.355 226.109 133.016 223.335C130.604 220.47 128.501 217.496 126.927 213.8C127.063 218.057 127.81 221.871 129.294 225.54C130.54 228.595 132.324 231.288 134.372 233.81L95.5266 262.315C92.4685 257.046 91.0216 252.907 90.3572 249.599C88.9465 242.604 91.1945 239.666 91.1945 239.666C91.1945 239.666 87.4175 241.926 86.7531 249.807C86.4072 253.856 87.2082 259.206 89.5928 266.482C89.6383 266.581 89.684 266.68 89.7386 266.771L89.9661 268.669C90.4212 272.401 91.8774 276.044 91.75 279.794C91.486 288.136 81.8288 293.794 73.2279 290.829L71.6445 290.287L70.1882 291.128C61.7329 296.053 54.9887 296.56 49.9192 295.204C45.6506 294.074 42.6381 291.679 40.8906 289.917C46.1421 284.521 59.0116 271.235 63.3439 266.192L65.5375 263.653L64.9731 263.101C59.7033 257.868 53.1411 257.841 46.4697 260.779C36.185 265.325 25.6637 277.553 21.9321 282.171C20.8582 281.828 17.5364 279.297 16.0802 277.842C13.8594 275.628 11.8752 271.886 11.0197 265.74L10.8104 264.249L9.59982 263.345C-1.5859 254.976 -3.70661 239.964 7.02403 231.044L8.37992 229.914L8.3257 228.152C8.17098 223.633 10.2369 219.087 13.0311 214.776C17.7275 207.5 24.5898 200.93 28.8311 196.303C46.7883 176.681 68.0128 151.963 81.6833 122.897C84.1953 117.555 85.2326 113.895 86.0153 111.021C86.6433 108.735 86.9991 107.036 88.1823 105.264C90.8945 101.224 97.2564 96.886 115.905 85.2995L116.934 84.6578L117.37 83.5281C118.981 79.3526 123.768 71.8421 134.244 68.0914L136.611 67.2418L136.657 64.7474C136.82 54.9142 141.571 22.8839 174.946 0C184.921 14.7227 183.784 38.3478 182.319 47.4038L181.19 54.3719L187.543 51.2087C203.68 43.174 221.628 43.3006 239.157 42.3968C255.486 41.5562 271.458 39.857 285.593 31.2168C285.22 33.6932 284.51 36.6124 283.19 39.5588L280.669 45.1803L286.849 44.6291C305.452 42.9571 323.173 47.946 340.73 53.4772C356.939 58.5836 373.022 64.1598 389.441 65.9764C385.873 70.3417 379.401 76.6864 369.526 80.7534L364.93 82.6515L368.143 86.4292C371.493 90.3697 399.125 120.62 431.899 127.841C427.412 133.634 419.822 139.454 409.164 140.9L406.051 141.325L406.024 144.443C405.969 148.953 406.697 165.492 413.213 181.083C417.109 190.428 423.071 199.393 431.999 205.449C426.247 209.679 416.855 211.432 407.316 209.932L403.748 209.371L403.157 212.896C399.525 234.216 403.13 261.538 416.982 280.517C410.283 283.437 400.172 283.879 392.554 279.18L390.414 277.86L388.422 279.379C381.769 284.431 359.607 310.686 371.202 345.03C352.307 348.943 337.99 341.27 325.813 333.814L322.727 331.925L320.816 334.98C312.797 347.777 306.508 361.741 302.248 376.563L300.929 381.163H409.828L132.597 711V451.658H24.2168L169.44 239.576ZM102.698 114.474C102.434 115.513 102.298 116.597 102.298 117.709C102.298 122.725 105.092 127.19 109.452 130.082C116.687 128.41 122.176 123.186 123.095 116.796C124.114 116.634 125.097 116.399 126.017 116.083C128.137 115.359 129.867 114.456 131.35 113.479C134.272 111.545 135.755 109.828 135.755 109.828C135.755 109.828 132.288 110.904 127.255 111.021C125.753 111.057 124.224 110.84 122.504 110.714C120.456 110.551 118.235 110.362 115.978 109.521C113.958 108.906 112.101 108.454 110.372 108.454C108.178 108.445 106.285 108.825 104.647 109.494C103.063 110.154 101.797 110.895 100.723 111.799C97.8019 114.293 96.81 116.814 96.81 116.814C96.81 116.814 98.9668 115.197 102.698 114.474ZM188.635 76.343C203.434 75.5296 217.486 76.2164 230.765 78.0782C245.246 80.1118 258.707 83.6818 271.112 88.5442C279.003 91.6351 286.466 95.2231 293.447 99.3353C310.44 109.349 324.547 122.49 335.078 138.352C345.326 153.788 352.161 171.747 355.128 191.711C356.303 199.637 356.875 207.862 356.857 216.394C356.839 222.847 356.511 229.472 355.792 236.259C354.773 245.821 353.044 255.672 350.514 265.822C347.911 276.215 344.534 286.88 340.22 297.816C346.81 284.376 351.961 271.262 355.638 258.465C359.797 243.968 362.155 229.932 362.746 216.52C363.147 207.663 362.719 199.077 361.645 190.817C358.887 169.749 351.715 150.779 340.957 134.511C329.881 117.754 314.964 103.8 296.879 93.5059C289.507 89.3124 281.615 85.7153 273.233 82.8503C260.254 78.4127 246.138 75.6289 231.139 74.6076C217.632 73.6948 203.443 74.2914 188.635 76.343ZM14.0412 232.228C17.1903 232.725 20.0571 235.708 20.4758 238.329C18.9832 237.1 17.8639 236.367 15.8797 236.666C11.9934 237.244 9.35378 241.058 9.97268 245.188C10.0637 245.758 10.2095 246.309 10.4006 246.824C11.4018 249.481 13.7407 251.352 16.3984 251.65C16.9718 251.705 17.5544 251.696 18.1369 251.614C18.3462 251.578 18.5557 251.542 18.756 251.488C18.9835 251.479 19.2202 251.452 19.4568 251.415C24.4171 250.674 27.7662 245.613 26.938 240.109C26.1006 234.614 21.4042 230.746 16.4348 231.487C15.5884 231.613 14.7876 231.867 14.0412 232.228Z" fill="black"/>
</svg>
