<svg width="825" height="618" viewBox="0 0 825 618" fill="none" xmlns="http://www.w3.org/2000/svg">
<path d="M749.879 227.582C752.315 231.069 753.902 234.936 754.995 239.013C754.996 239.012 754.998 239.012 754.999 239.012C758.267 245.292 760.584 251.902 762.081 258.802C756.203 257.682 751.599 255.172 750.152 248.792C749.66 246.617 749.573 244.679 750.142 243.073C749.57 244.681 749.658 246.622 750.151 248.802C751.598 255.182 756.202 257.692 762.081 258.812C762.999 260.596 763.916 262.391 763.721 264.492L763.938 264.811C764.99 266.416 765.458 268.182 765.269 270.132C763.64 271.152 762.719 273.952 759.997 272.252C758.571 271.367 758.157 270.072 758.133 268.675C758.154 270.077 758.565 271.376 759.997 272.272C762.719 273.971 763.64 271.171 765.269 270.151C766.766 274.171 766.988 278 768.485 282.531C768.607 283.291 768.739 284.052 768.86 284.812C769.083 285.231 769.063 285.641 768.8 286.031C768.796 286.03 768.791 286.027 768.787 286.025C768.697 286.6 768.596 287.165 768.506 287.731L768.507 287.732C772.655 291.711 770.177 296.871 770.996 301.441C766.311 301.221 761.576 301.332 756.941 300.732C744.142 299.062 735.997 305.212 730.159 315.602C726.992 313.512 726.557 309.982 725.394 306.832C726.033 306.244 726.697 305.673 727.368 305.107C726.697 305.673 726.032 306.244 725.393 306.832C724.158 304.592 722.448 302.552 722.246 299.852C722.248 299.849 722.249 299.847 722.25 299.845C719.52 286.484 716.668 273.163 712.27 260.232C718.128 257.162 723.703 253.992 726.759 247.552C728.519 243.842 732.597 242.352 736.482 241.212C740.56 240.012 743.889 238.462 743.909 233.332C743.929 229.802 746.429 228.022 749.879 227.582ZM459.702 1.09185C462.606 -0.548132 465.692 0.0514223 468.758 0.401421C474.555 0.391422 480.353 0.382124 486.15 0.372124C486.152 0.375426 486.154 0.378592 486.156 0.38189H539.048C539.051 0.378623 539.055 0.375394 539.059 0.372124C539.999 0.372126 540.94 0.381887 541.881 0.38189C543.805 2.30038 545.856 3.6856 548 4.68072C545.86 3.68543 543.812 2.29996 541.891 0.38189C547.031 0.29189 552.171 -0.0280709 557.291 0.171929C562.33 0.381984 566.913 1.90201 569.473 6.80181C569.47 6.80192 569.467 6.80171 569.465 6.80181C569.93 6.88134 570.505 6.80226 570.839 7.05181C579.227 13.3618 579.389 28.8816 576.323 38.5616C573.49 47.5215 564.627 53.2915 554.276 53.4317C542.175 53.5917 530.063 53.492 517.952 53.502C517.949 53.502 517.945 53.502 517.941 53.502C518.619 55.5818 520.471 55.9522 522.262 56.6622C529.142 59.4322 534.332 63.432 532.582 71.962C531.601 76.7218 534.161 77.9516 538.481 78.3116C557.534 79.9016 576.141 83.7715 594.343 89.5713C634.775 102.451 669.227 124.842 699.43 154.002C699.431 154.003 699.432 154.004 699.433 154.005C700.094 150.295 702.461 148.141 705.946 146.992V146.991C711.086 143.891 712.169 140.971 706.979 136.321C699.704 129.801 700.159 124.072 707.363 117.132C724.787 100.362 727.66 100.452 743.818 117.912C750.415 125.042 757.164 132.032 763.802 139.122C770.439 146.212 770.095 154.132 762.922 160.752C759.785 163.642 756.769 166.682 753.471 169.382C748.078 173.792 742.463 174.011 738.345 168.741C733.529 162.571 729.774 162.922 725.181 168.412C724.464 169.27 723.222 169.71 722.222 170.338C722.223 170.343 722.225 170.347 722.227 170.352C722.227 172.717 719.818 173.747 719.175 175.759C729.068 189.437 738.477 203.424 745.974 218.571C747.421 221.501 748.584 224.562 749.879 227.562C746.429 228.002 743.93 229.782 743.909 233.312C743.889 238.442 740.56 240.001 736.482 241.191C732.597 242.331 728.519 243.822 726.759 247.531C723.703 253.961 718.118 257.142 712.27 260.212C711.227 257.862 710.186 255.501 709.144 253.151C673.528 173.102 612.505 127.532 523.679 119.691C506.215 118.151 488.973 120.472 471.752 122.842C472.106 117.662 472.136 113.352 464.912 112.182C460.096 111.402 457.182 107.462 457.323 101.722C457.38 99.3478 458.034 98.0117 459.032 97.2374C458.026 98.01 457.367 99.3467 457.313 101.731C457.182 107.471 460.086 111.411 464.902 112.191C472.127 113.361 472.096 117.672 471.742 122.852C469.921 123.352 468.11 123.932 466.269 124.352C436.39 131.172 409.253 143.822 384.636 161.821L365.421 178.092C360.342 171.242 352.379 167.692 346.358 161.832C344.311 159.835 343.197 158.272 343.154 156.7C343.193 158.275 344.307 159.841 346.358 161.842C352.389 167.712 360.352 171.262 365.421 178.102C357.438 187.102 349.455 196.122 341.472 205.142C342.155 202.498 342.413 200.201 341.708 198.614L341.698 198.595C342.403 200.182 342.145 202.479 341.462 205.122C333.519 217.452 325.941 229.982 319.263 243.032C318.787 237.432 318.149 232.972 310.166 232.772C306.671 232.684 303.171 230.854 302.021 227.151C303.168 230.865 306.667 232.694 310.166 232.781C318.149 232.981 318.787 237.442 319.263 243.042C315.812 252.112 312.372 261.182 308.922 270.252C305.684 269.602 302.487 268.902 299.158 268.552C295.459 268.164 292.182 266.878 289.645 264.569L289.279 264.226C291.865 266.758 295.284 268.155 299.168 268.562C302.497 268.912 305.694 269.612 308.932 270.262C303.58 284.497 301.555 288.498 295.852 304.292C295.854 304.295 295.856 304.298 295.858 304.302C294.169 307.672 293.643 311.652 290.557 314.292C282.422 299.142 268.014 300.412 254 300.622C254.88 296.062 254.455 291.292 256.357 286.912C258.166 286.511 259.923 286.223 261.631 286.044C259.92 286.222 258.159 286.51 256.348 286.912C258.118 273.302 262.247 260.331 267.387 247.651C272.515 247.513 276.4 248.394 279.466 250.532C276.397 248.387 272.507 247.503 267.377 247.642C270.402 237.042 274.955 227.092 280.449 217.542C285.276 219.082 289.778 219.512 294.797 217.102C298.17 215.483 301.807 216.46 301.992 220.32C301.813 216.449 298.173 215.463 294.797 217.092C289.788 219.512 285.286 219.082 280.449 217.542C287.026 203.292 295.445 190.182 305.522 178.112C305.529 178.112 305.536 178.112 305.543 178.112C309.376 171.701 314.33 166.206 319.758 161.111C327.002 157.811 332.325 152.601 335.623 145.401C336.594 144.531 337.566 143.662 338.548 142.792C339.831 142.714 340.965 142.464 340.964 140.894C341.94 140.937 342.434 140.449 342.474 139.472L342.443 139.432C343.06 139.612 343.688 139.782 344.305 139.962C347.051 142.257 348.476 144.368 348.561 146.483C348.48 144.365 347.056 142.251 344.305 139.952C344.214 139.262 344.133 138.582 344.042 137.892C360.595 123.732 378.504 111.652 398.639 102.952V102.951C419.027 92.5912 440.396 85.1916 463.132 81.8516C463.492 82.3934 463.949 82.7315 464.469 82.959C463.951 82.7315 463.496 82.3917 463.132 81.8516C470.235 80.6616 477.358 79.552 484.44 78.252C488.801 77.4519 487.193 73.8117 487.041 71.4317C486.596 64.2517 488.052 58.4713 496.025 56.3213C496.541 56.0114 497.058 55.7016 497.563 55.3917L497.837 55.1915C497.923 55.1995 498.007 55.2028 498.089 55.2042C498.013 55.2024 497.936 55.1988 497.857 55.1915L497.523 53.5713C485.088 52.9014 472.572 54.6919 460.188 52.4219C460.231 52.3974 460.275 52.3734 460.319 52.3497C460.275 52.3735 460.23 52.3974 460.187 52.4219C448.966 50.0418 442.187 42.2614 441.803 31.3116C441.479 21.9817 441.58 12.7321 449.462 5.87212C452.133 3.54217 454.986 1.31161 458.861 1.27154H458.862C459.075 0.911664 459.358 0.851882 459.702 1.09185C461.061 1.09635 462.437 1.29285 463.802 1.36041C462.439 1.29265 461.064 1.09634 459.702 1.09185ZM732.257 300.731C731.938 301.068 731.607 301.397 731.269 301.72C731.607 301.397 731.938 301.068 732.257 300.731ZM734.467 298.071C735.622 296.67 736.826 295.423 738.075 294.319C737.763 294.595 737.453 294.88 737.146 295.174C736.686 295.615 736.233 296.077 735.786 296.56C735.488 296.881 735.193 297.212 734.901 297.553C734.755 297.723 734.61 297.896 734.466 298.071H734.467ZM740.676 292.273C740.516 292.384 740.357 292.498 740.199 292.613C740.357 292.498 740.516 292.384 740.676 292.273ZM742.968 290.827C742.628 291.018 742.292 291.218 741.958 291.426C742.292 291.218 742.628 291.018 742.968 290.827ZM745.561 289.539H745.562H745.561ZM754.444 287.215C754.057 287.26 753.671 287.311 753.288 287.368C753.671 287.311 754.057 287.26 754.444 287.215ZM755.611 287.098C756.002 287.064 756.395 287.037 756.79 287.015C756.395 287.037 756.002 287.064 755.611 287.098ZM264.456 285.847C264.255 285.854 264.053 285.863 263.851 285.873C264.053 285.863 264.255 285.854 264.456 285.847ZM768.486 282.512C769.346 283.152 769.467 283.912 768.86 284.792C768.739 284.032 768.608 283.272 768.486 282.512ZM498.722 150.792C498.649 150.901 498.565 151.005 498.464 151.102C498.262 150.582 498.433 150.242 499 150.062C504.909 140.122 514.592 140.051 520.41 149.901C520.41 150.311 520.532 150.692 520.774 151.022C522.697 155.062 521.634 159.352 521.654 163.512C521.715 182.062 521.554 200.602 521.473 219.151C522.312 231.451 518.902 237.152 510.464 237.582C501.783 238.022 497.766 232.702 497.756 220.472C497.756 211.542 497.927 202.612 498.028 193.682L497.973 191.019C497.666 177.705 496.994 164.385 498.474 151.092C498.57 151 498.651 150.898 498.722 150.792ZM516.213 207.965C516.195 209.093 515.971 210.277 515.606 211.437C515.971 210.278 516.196 209.093 516.213 207.965ZM498.179 193.75C503.241 196.041 507.199 200.061 512.499 202.159C507.189 200.051 503.241 196.031 498.179 193.75ZM329.264 191.127C329.365 191.375 329.464 191.624 329.562 191.872C329.721 192.268 329.878 192.66 330.041 193.038C329.881 192.666 329.728 192.281 329.573 191.892C329.376 191.397 329.174 190.899 328.963 190.411L329.264 191.127ZM314.729 183.245C314.854 183.488 314.972 183.74 315.084 184.002C315.15 184.155 315.219 184.303 315.293 184.443C315.223 184.309 315.156 184.168 315.094 184.022C314.926 183.628 314.744 183.256 314.549 182.906L314.729 183.245ZM314.471 182.772C314.43 182.701 314.39 182.631 314.348 182.562C314.389 182.631 314.43 182.701 314.471 182.772ZM335.623 145.382C332.325 152.582 327.002 157.792 319.758 161.092C324.422 155.242 329.492 149.792 335.623 145.382ZM520.421 149.901C520.907 150.171 521.028 150.552 520.785 151.022C520.542 150.692 520.421 150.311 520.421 149.901ZM340.964 140.894C340.941 140.893 340.919 140.893 340.896 140.892C340.885 140.892 340.966 140.772 340.966 140.772C340.967 140.813 340.964 140.854 340.964 140.894ZM394.188 125.505C393.427 126.619 393.11 127.879 392.991 129.27C393.111 127.88 393.431 126.617 394.188 125.505ZM464.945 83.1329C465.331 83.2517 465.742 83.3314 466.167 83.4014C469.698 83.9714 471.863 86.0014 471.58 89.6211C471.375 92.1689 470.108 94.0984 468.051 95.129C470.117 94.1013 471.392 92.1638 471.59 89.6114C471.873 85.9916 469.718 83.9616 466.177 83.3917C465.747 83.3284 465.333 83.2512 464.945 83.1329ZM498.958 52.6104C499.484 52.6312 500.005 53.0173 500.526 53.5879C500.007 53.0147 499.487 52.6277 498.958 52.6104ZM476.457 47.2608C475.897 47.8162 475.305 48.2701 474.688 48.6456C475.305 48.2704 475.897 47.8163 476.457 47.2608ZM493.069 43.6729C495.421 43.6877 497.449 44.8326 497.26 48.0821H497.261C497.458 44.8302 495.428 43.686 493.069 43.6729ZM476.892 46.8018C476.855 46.8433 476.817 46.8834 476.779 46.9239C476.817 46.8832 476.856 46.8435 476.893 46.8018C476.917 46.7741 476.943 46.7471 476.972 46.7217L476.892 46.8018ZM477.322 46.502C477.284 46.519 477.247 46.5374 477.211 46.5567C477.247 46.5373 477.284 46.5191 477.322 46.502ZM486.676 43.8838C487.377 44.0194 488.117 44.0897 488.904 44.085C487.987 44.0904 487.132 43.9932 486.329 43.8106L486.676 43.8838ZM491.346 43.8428C491.105 43.8876 490.869 43.9261 490.636 43.9581C490.869 43.9261 491.105 43.8876 491.346 43.8428ZM484.062 43.0284C484.164 43.076 484.267 43.1222 484.37 43.167C484.473 43.2119 484.578 43.255 484.683 43.2969C484.998 43.4229 485.321 43.5355 485.653 43.6338L485.324 43.5303C484.781 43.3505 484.261 43.1319 483.761 42.8809L484.062 43.0284ZM482.314 42.0391C482.687 42.2858 483.069 42.5158 483.463 42.7266L483.17 42.5655C482.879 42.4001 482.594 42.2242 482.314 42.0391ZM472.521 33.6622C474.421 34.8371 476.055 36.4461 477.691 38.0489C478.019 38.3695 478.346 38.6903 478.676 39.0069C479.006 39.3235 479.338 39.636 479.675 39.9415C477.32 37.8038 475.182 35.3062 472.521 33.6612L472.521 33.6622ZM482.016 34.6211C481.462 34.8324 480.888 34.9539 480.298 34.9893C480.888 34.954 481.462 34.8324 482.016 34.6211ZM483.095 34.0743C482.902 34.1992 482.705 34.3106 482.506 34.4092C482.705 34.3106 482.902 34.1992 483.095 34.0743ZM483.385 33.8741C483.32 33.9219 483.253 33.9662 483.187 34.0108C483.349 33.9014 483.51 33.7843 483.667 33.6553L483.385 33.8741ZM474.798 33.3116C474.307 33.0012 473.56 33.0972 472.61 33.6143C473.55 33.1067 474.297 33.0111 474.798 33.3116ZM481.313 23.9717C482.58 25.0592 484.147 26.0168 485.135 27.1622C484.148 26.0141 482.582 25.0556 481.314 23.9717C481.221 23.8915 481.128 23.8107 481.037 23.7295C481.128 23.8107 481.22 23.8915 481.313 23.9717ZM478.794 14.0118C478.76 14.0834 478.729 14.1557 478.696 14.2266C478.729 14.1556 478.76 14.0835 478.795 14.0118C478.916 13.7596 479.029 13.5133 479.141 13.2754C479.029 13.5132 478.915 13.7596 478.794 14.0118ZM473.219 5.57037C477.824 5.4805 480.171 5.66025 480.797 7.01959C480.178 5.65292 477.833 5.47499 473.219 5.57037ZM498.823 150.621C498.806 150.655 498.787 150.688 498.768 150.721C498.787 150.688 498.806 150.655 498.823 150.621Z" fill="#9146FF"/>
<path d="M346.001 618.001L378.501 535.001H511.001L346.001 618.001Z" fill="white"/>
<rect x="289.001" y="279" width="443" height="283" rx="90" fill="white"/>
<rect x="337" y="327" width="349" height="186" rx="50" fill="black"/>
<path d="M710.716 283.942C710.647 267.273 741.603 263.733 766.072 276.289C791.457 289.314 809.14 308.685 813.001 337.634C819.336 385.134 805.001 401.134 782.749 419.45C765.865 433.348 745.221 438.874 745.168 425.847C745.094 407.784 744.931 367.606 744.906 361.58C744.881 355.555 740.894 334.452 732.81 320.209C722.929 300.463 710.742 290.145 710.716 283.942Z" fill="white"/>
<path d="M310.246 283.942C310.314 267.273 279.359 263.733 254.89 276.289C229.505 289.314 211.822 308.685 207.961 337.634C201.625 385.134 215.961 401.134 238.213 419.45C255.096 433.348 275.741 438.874 275.794 425.847C275.868 407.784 276.031 367.606 276.056 361.58C276.08 355.555 280.068 334.452 288.152 320.209C298.033 300.463 310.22 290.145 310.246 283.942Z" fill="white"/>
<path d="M433.648 393.001C455.658 392.881 474.018 411.811 473.388 434.011C473.178 441.351 468.798 446.251 462.508 446.171C456.468 446.091 452.658 441.681 452.228 434.251C451.398 420.041 441.808 411.801 429.198 414.461C419.858 416.431 414.538 423.121 414.388 433.961C414.308 439.561 412.478 443.651 407.128 445.581C400.128 448.101 393.758 443.321 393.118 435.241C391.328 412.721 410.118 393.131 433.648 393.001Z" fill="white"/>
<path d="M630.485 432.477C630.555 440.877 626.975 445.727 620.535 446.007C613.935 446.287 610.015 441.757 609.535 433.317C608.865 421.487 601.275 413.607 590.775 413.837C579.845 414.087 572.595 421.757 572.165 433.527C571.875 441.487 567.605 446.207 560.935 445.967C554.845 445.737 551.215 441.267 551.015 433.757C550.405 411.387 567.955 393.427 590.835 393.007C612.175 392.607 630.305 410.667 630.485 432.477Z" fill="white"/>
<path d="M112 220.5C112 209.73 120.73 201 131.5 201H210.5C221.27 201 230 209.73 230 220.5C230 231.27 221.27 240 210.5 240H131.5C120.73 240 112 231.27 112 220.5Z" fill="#9146FF"/>
<path d="M32 305.5C32 294.73 40.7304 286 51.5 286H161.5C172.27 286 181 294.73 181 305.5C181 316.27 172.27 325 161.5 325H51.5C40.7304 325 32 316.27 32 305.5Z" fill="#9045FE"/>
<path d="M51 390.5C51 379.73 59.7304 371 70.5 371H161.5C172.27 371 181 379.73 181 390.5C181 401.27 172.27 410 161.5 410H70.5C59.7304 410 51 401.27 51 390.5Z" fill="#9045FE"/>
<path d="M112 474.5C112 463.73 120.73 455 131.5 455H222.5C233.27 455 242 463.73 242 474.5C242 485.27 233.27 494 222.5 494H131.5C120.73 494 112 485.27 112 474.5Z" fill="#9045FE"/>
<path d="M0 389.5C0 378.73 8.73045 370 19.5 370H20.5C31.2696 370 40 378.73 40 389.5C40 400.27 31.2696 409 20.5 409H19.5C8.73045 409 0 400.27 0 389.5Z" fill="#9045FE"/>
</svg>
